<svg xmlns="http://www.w3.org/2000/svg" xmlns:xlink="http://www.w3.org/1999/xlink" width="78" height="78" viewBox="0 0 78 78"><defs><linearGradient id="a" y1="1" x2="1" gradientUnits="objectBoundingBox"><stop offset="0" stop-color="#ffcf60"/><stop offset="1" stop-color="#ff8944"/></linearGradient><linearGradient id="b" x1="0.5" x2="0.5" y2="1" gradientUnits="objectBoundingBox"><stop offset="0" stop-color="#fff"/><stop offset="1" stop-color="#fff" stop-opacity="0.149"/></linearGradient></defs><rect width="78" height="78" rx="20" fill="url(#a)"/><g transform="translate(0 0)" opacity="0.15"><path d="M2577-59.366V-77.873a2,2,0,0,1,2-2h37v.507a19.973,19.973,0,0,1-8.09,16.069h-13.334a1,1,0,0,0-1,1v2.931Z" transform="translate(-2538 137.365)" fill="url(#b)"/><path d="M2568.072-67.807V-83.872a19.135,19.135,0,0,0,4.875.628,19.2,19.2,0,0,0,19.174-19.174,19.183,19.183,0,0,0-.392-3.868h15.955a35.506,35.506,0,0,1,.21,3.868,34.722,34.722,0,0,1-2.746,13.6,34.84,34.84,0,0,1-7.49,11.109,34.838,34.838,0,0,1-11.109,7.49,34.721,34.721,0,0,1-13.6,2.746A35.358,35.358,0,0,1,2568.072-67.807Z" transform="translate(-2568.072 106.286)" fill="url(#b)"/></g><g transform="translate(29.346 29.346)"><path d="M8.556,3H5.222A2.222,2.222,0,0,0,3,5.222V8.556m20,0V5.222A2.222,2.222,0,0,0,20.778,3H17.444m0,20h3.333A2.222,2.222,0,0,0,23,20.778V17.444m-20,0v3.333A2.222,2.222,0,0,0,5.222,23H8.556" transform="translate(-3 -3)" fill="none" stroke="#fff" stroke-width="2.5"/></g></svg>