<svg xmlns="http://www.w3.org/2000/svg" xmlns:xlink="http://www.w3.org/1999/xlink" width="78" height="78" viewBox="0 0 78 78"><defs><linearGradient id="a" x1="0.5" x2="0.5" y2="1" gradientUnits="objectBoundingBox"><stop offset="0" stop-color="#fff"/><stop offset="1" stop-color="#fff" stop-opacity="0.149"/></linearGradient></defs><rect width="78" height="78" rx="20" fill="#3c285b"/><g transform="translate(0 0)" opacity="0.05"><path d="M2558-59.366a19.906,19.906,0,0,1-11.2-3.428V-80.3a1,1,0,0,0-1-1H2538V-97.872h21.426a2,2,0,0,1,2,2v36.507Z" transform="translate(-2538 137.365)" fill="url(#a)"/><path d="M2618.344-77.217a34.834,34.834,0,0,1-11.109-7.49,34.825,34.825,0,0,1-7.489-11.108,34.623,34.623,0,0,1-2.609-10.471h15.892a19.2,19.2,0,0,0,18.919,16.042,19.085,19.085,0,0,0,12.274-4.455,19.921,19.921,0,0,1,1.851,8.413v8.843q-.26.115-.522.226a34.726,34.726,0,0,1-13.6,2.746A34.724,34.724,0,0,1,2618.344-77.217Z" transform="translate(-2568.072 106.286)" fill="url(#a)"/></g><g transform="translate(29 29.373)"><path d="M10.939,4H3.987A1.987,1.987,0,0,0,2,5.987V19.892a1.987,1.987,0,0,0,1.987,1.987H17.892a1.987,1.987,0,0,0,1.987-1.987V12.939" transform="translate(-2 -1.879)" fill="none" stroke="#fff" stroke-linecap="round" stroke-linejoin="round" stroke-width="2"/><path d="M18.5,2.5a2.121,2.121,0,0,1,3,3L12,15,8,16l1-4Z" transform="translate(-2.121 -1.879)" fill="none" stroke="#fff" stroke-linecap="round" stroke-linejoin="round" stroke-width="2"/></g></svg>