<svg xmlns="http://www.w3.org/2000/svg" width="88.699" height="139.666" viewBox="0 0 88.699 139.666"><g transform="translate(-232.042 -115.17)"><circle cx="1.5" cy="1.5" r="1.5" transform="translate(283.462 166.17)" fill="#866baf"/><circle cx="1.5" cy="1.5" r="1.5" transform="translate(300.602 166.17)" fill="#866baf"/><circle cx="1.5" cy="1.5" r="1.5" transform="translate(317.742 166.17)" fill="#866baf"/><circle cx="1.5" cy="1.5" r="1.5" transform="translate(283.462 183.303)" fill="#866baf"/><circle cx="1.5" cy="1.5" r="1.5" transform="translate(300.602 183.303)" fill="#866baf"/><circle cx="1.5" cy="1.5" r="1.5" transform="translate(317.742 183.303)" fill="#866baf"/><circle cx="1.5" cy="1.5" r="1.5" transform="translate(283.462 200.436)" fill="#866baf"/><circle cx="1.5" cy="1.5" r="1.5" transform="translate(300.602 200.436)" fill="#866baf"/><circle cx="1.5" cy="1.5" r="1.5" transform="translate(317.742 200.436)" fill="#866baf"/><circle cx="1.5" cy="1.5" r="1.5" transform="translate(283.462 217.57)" fill="#866baf"/><circle cx="1.5" cy="1.5" r="1.5" transform="translate(300.602 217.57)" fill="#866baf"/><circle cx="1.5" cy="1.5" r="1.5" transform="translate(317.742 217.57)" fill="#866baf"/><circle cx="1.5" cy="1.5" r="1.5" transform="translate(283.462 235.164)" fill="#866baf"/><circle cx="1.5" cy="1.5" r="1.5" transform="translate(300.602 235.164)" fill="#866baf"/><circle cx="1.5" cy="1.5" r="1.5" transform="translate(317.742 235.164)" fill="#866baf"/><circle cx="1.5" cy="1.5" r="1.5" transform="translate(283.462 251.836)" fill="#866baf"/><circle cx="1.5" cy="1.5" r="1.5" transform="translate(300.602 251.836)" fill="#866baf"/><circle cx="1.5" cy="1.5" r="1.5" transform="translate(317.742 251.836)" fill="#866baf"/><circle cx="1.5" cy="1.5" r="1.5" transform="translate(232.042 166.17)" fill="#866baf"/><circle cx="1.5" cy="1.5" r="1.5" transform="translate(249.182 166.17)" fill="#866baf"/><circle cx="1.5" cy="1.5" r="1.5" transform="translate(266.322 166.17)" fill="#866baf"/><circle cx="1.5" cy="1.5" r="1.5" transform="translate(232.042 183.303)" fill="#866baf"/><circle cx="1.5" cy="1.5" r="1.5" transform="translate(249.182 183.303)" fill="#866baf"/><circle cx="1.5" cy="1.5" r="1.5" transform="translate(266.322 183.303)" fill="#866baf"/><circle cx="1.5" cy="1.5" r="1.5" transform="translate(232.042 200.436)" fill="#866baf"/><circle cx="1.5" cy="1.5" r="1.5" transform="translate(249.182 200.436)" fill="#866baf"/><circle cx="1.5" cy="1.5" r="1.5" transform="translate(266.322 200.436)" fill="#866baf"/><circle cx="1.5" cy="1.5" r="1.5" transform="translate(232.042 217.57)" fill="#866baf"/><circle cx="1.5" cy="1.5" r="1.5" transform="translate(249.182 217.57)" fill="#866baf"/><circle cx="1.5" cy="1.5" r="1.5" transform="translate(266.322 217.57)" fill="#866baf"/><circle cx="1.5" cy="1.5" r="1.5" transform="translate(232.042 235.164)" fill="#866baf"/><circle cx="1.5" cy="1.5" r="1.5" transform="translate(249.182 235.164)" fill="#866baf"/><circle cx="1.5" cy="1.5" r="1.5" transform="translate(266.322 235.164)" fill="#866baf"/><circle cx="1.5" cy="1.5" r="1.5" transform="translate(232.042 251.836)" fill="#866baf"/><circle cx="1.5" cy="1.5" r="1.5" transform="translate(249.182 251.836)" fill="#866baf"/><circle cx="1.5" cy="1.5" r="1.5" transform="translate(266.322 251.836)" fill="#866baf"/><circle cx="1.5" cy="1.5" r="1.5" transform="translate(283.462 115.17)" fill="#866baf"/><circle cx="1.5" cy="1.5" r="1.5" transform="translate(300.602 115.17)" fill="#866baf"/><circle cx="1.5" cy="1.5" r="1.5" transform="translate(317.742 115.17)" fill="#866baf"/><circle cx="1.5" cy="1.5" r="1.5" transform="translate(283.462 131.842)" fill="#866baf"/><circle cx="1.5" cy="1.5" r="1.5" transform="translate(300.602 131.842)" fill="#866baf"/><circle cx="1.5" cy="1.5" r="1.5" transform="translate(317.742 131.842)" fill="#866baf"/><circle cx="1.5" cy="1.5" r="1.5" transform="translate(283.462 149.437)" fill="#866baf"/><circle cx="1.5" cy="1.5" r="1.5" transform="translate(300.602 149.437)" fill="#866baf"/><circle cx="1.5" cy="1.5" r="1.5" transform="translate(317.742 149.437)" fill="#866baf"/><circle cx="1.5" cy="1.5" r="1.5" transform="translate(283.462 166.57)" fill="#866baf"/><circle cx="1.5" cy="1.5" r="1.5" transform="translate(300.602 166.57)" fill="#866baf"/><circle cx="1.5" cy="1.5" r="1.5" transform="translate(317.742 166.57)" fill="#866baf"/><circle cx="1.5" cy="1.5" r="1.5" transform="translate(283.462 183.703)" fill="#866baf"/><circle cx="1.5" cy="1.5" r="1.5" transform="translate(300.602 183.703)" fill="#866baf"/><circle cx="1.5" cy="1.5" r="1.5" transform="translate(317.742 183.703)" fill="#866baf"/><circle cx="1.5" cy="1.5" r="1.5" transform="translate(283.462 200.836)" fill="#866baf"/><circle cx="1.5" cy="1.5" r="1.5" transform="translate(300.602 200.836)" fill="#866baf"/><circle cx="1.5" cy="1.5" r="1.5" transform="translate(317.742 200.836)" fill="#866baf"/><circle cx="1.5" cy="1.5" r="1.5" transform="translate(232.042 115.17)" fill="#866baf"/><circle cx="1.5" cy="1.5" r="1.5" transform="translate(249.182 115.17)" fill="#866baf"/><circle cx="1.5" cy="1.5" r="1.5" transform="translate(266.322 115.17)" fill="#866baf"/><circle cx="1.5" cy="1.5" r="1.5" transform="translate(232.042 131.842)" fill="#866baf"/><circle cx="1.5" cy="1.5" r="1.5" transform="translate(249.182 131.842)" fill="#866baf"/><circle cx="1.5" cy="1.5" r="1.5" transform="translate(266.322 131.842)" fill="#866baf"/><circle cx="1.5" cy="1.5" r="1.5" transform="translate(232.042 149.437)" fill="#866baf"/><circle cx="1.5" cy="1.5" r="1.5" transform="translate(249.182 149.437)" fill="#866baf"/><circle cx="1.5" cy="1.5" r="1.5" transform="translate(266.322 149.437)" fill="#866baf"/><circle cx="1.5" cy="1.5" r="1.5" transform="translate(232.042 166.57)" fill="#866baf"/><circle cx="1.5" cy="1.5" r="1.5" transform="translate(249.182 166.57)" fill="#866baf"/><circle cx="1.5" cy="1.5" r="1.5" transform="translate(266.322 166.57)" fill="#866baf"/><circle cx="1.5" cy="1.5" r="1.5" transform="translate(232.042 183.703)" fill="#866baf"/><circle cx="1.5" cy="1.5" r="1.5" transform="translate(249.182 183.703)" fill="#866baf"/><circle cx="1.5" cy="1.5" r="1.5" transform="translate(266.322 183.703)" fill="#866baf"/><circle cx="1.5" cy="1.5" r="1.5" transform="translate(232.042 200.836)" fill="#866baf"/><circle cx="1.5" cy="1.5" r="1.5" transform="translate(249.182 200.836)" fill="#866baf"/><circle cx="1.5" cy="1.5" r="1.5" transform="translate(266.322 200.836)" fill="#866baf"/></g></svg>