<svg xmlns="http://www.w3.org/2000/svg" width="73.74" height="19.799" viewBox="0 0 73.74 19.799"><g transform="translate(-90.284 -115.515)"><g transform="translate(71.327 117.138)"><rect width="15" height="1.5" transform="translate(18.957 5.877) rotate(-30)" fill="#866baf"/><rect width="15" height="1.5" transform="translate(31.708 -1.623) rotate(30)" fill="#866baf"/><rect width="15" height="1.5" transform="translate(42.958 5.877) rotate(-30)" fill="#866baf"/><rect width="15" height="1.5" transform="translate(55.708 -1.623) rotate(30)" fill="#866baf"/><rect width="15" height="1.5" transform="translate(66.958 5.877) rotate(-30)" fill="#866baf"/><rect width="15" height="1.5" transform="translate(79.708 -1.623) rotate(30)" fill="#866baf"/></g><g transform="translate(71.327 128.138)"><rect width="15" height="1.5" transform="translate(18.957 5.877) rotate(-30)" fill="#866baf"/><rect width="15" height="1.5" transform="translate(31.708 -1.623) rotate(30)" fill="#866baf"/><rect width="15" height="1.5" transform="translate(42.958 5.877) rotate(-30)" fill="#866baf"/><rect width="15" height="1.5" transform="translate(55.708 -1.623) rotate(30)" fill="#866baf"/><rect width="15" height="1.5" transform="translate(66.958 5.877) rotate(-30)" fill="#866baf"/><rect width="15" height="1.5" transform="translate(79.708 -1.623) rotate(30)" fill="#866baf"/></g></g></svg>